<svg width="29" height="29" viewBox="0 0 29 29" fill="none" xmlns="http://www.w3.org/2000/svg">
<path d="M10.875 21.75C11.876 21.75 12.6875 22.5615 12.6875 23.5625C12.6875 24.5635 11.876 25.375 10.875 25.375C9.87398 25.375 9.0625 24.5635 9.0625 23.5625C9.0625 22.5615 9.87398 21.75 10.875 21.75Z" stroke="#1B1B1B" stroke-width="1.8125"/>
<path d="M19.334 21.75C20.335 21.75 21.1465 22.5615 21.1465 23.5625C21.1465 24.5635 20.335 25.375 19.334 25.375C18.333 25.375 17.5215 24.5635 17.5215 23.5625C17.5215 22.5615 18.333 21.75 19.334 21.75Z" stroke="#1B1B1B" stroke-width="1.8125"/>
<path d="M6.94727 14.5C6.94727 12.7656 6.94919 11.5559 7.07191 10.6431C7.19111 9.75649 7.40915 9.28697 7.74357 8.95255C8.07799 8.61814 8.54751 8.40009 9.43416 8.28089C10.3469 8.15817 11.5565 8.15625 13.291 8.15625H16.816C18.8301 8.15625 20.2434 8.15841 21.2938 8.3075C22.3191 8.45302 22.8313 8.71826 23.1696 9.11767C23.508 9.51708 23.6855 10.0659 23.6604 11.1012C23.6348 12.1618 23.4045 13.5562 23.0734 15.5429C22.8285 17.0125 22.6569 18.0317 22.4295 18.7957C22.2094 19.5354 21.9661 19.9267 21.6442 20.1995C21.3222 20.4722 20.8963 20.6478 20.1304 20.7433C19.3394 20.8421 18.306 20.8438 16.816 20.8438H13.291C11.5565 20.8438 10.3469 20.8418 9.43416 20.7192C8.54751 20.5999 8.07799 20.3819 7.74357 20.0475C7.40915 19.713 7.19111 19.2436 7.07191 18.3569C6.94919 17.4441 6.94727 16.2344 6.94727 14.5Z" stroke="#1B1B1B" stroke-width="1.8125"/>
<path d="M6.94857 13.8958V6.04167C6.94857 4.70698 5.86659 3.625 4.5319 3.625H3.02148" stroke="#1B1B1B" stroke-width="1.8125" stroke-linecap="round"/>
</svg>
